<svg width="22.000000" height="31.000000" viewBox="0 0 22 31" fill="none" xmlns="http://www.w3.org/2000/svg" xmlns:xlink="http://www.w3.org/1999/xlink">
	<desc>
			Created with Pixso.
	</desc>
	<defs/>
	<path id="Vector" d="M20.47 28.94L19.91 28.94C19.91 28.93 19.91 28.93 19.91 28.92L19.89 28.85C19.88 28.81 19.87 28.76 19.86 28.72C19.85 28.7 19.85 28.68 19.84 28.65C19.83 28.6 19.81 28.54 19.8 28.48L19.79 28.46C19.78 28.4 19.76 28.33 19.74 28.27L19.72 28.21C19.71 28.17 19.69 28.12 19.68 28.08C19.67 28.06 19.67 28.03 19.66 28.01C19.64 27.97 19.63 27.93 19.62 27.89C19.61 27.87 19.6 27.84 19.59 27.82C19.57 27.77 19.56 27.72 19.54 27.67C19.53 27.66 19.53 27.65 19.52 27.64C19.5 27.58 19.48 27.52 19.45 27.46C19.44 27.43 19.43 27.41 19.43 27.39C19.41 27.35 19.39 27.31 19.38 27.27L19.34 27.2C19.33 27.17 19.31 27.13 19.29 27.09C19.28 27.07 19.27 27.04 19.26 27.02C19.24 26.98 19.22 26.93 19.2 26.89C19.19 26.88 19.18 26.86 19.17 26.84C19.15 26.79 19.12 26.73 19.09 26.68L19.05 26.61L18.99 26.51L18.95 26.43C18.93 26.4 18.91 26.37 18.89 26.34C18.88 26.31 18.86 26.29 18.85 26.26C18.83 26.23 18.81 26.19 18.79 26.16L18.73 26.07C18.7 26.03 18.68 25.99 18.65 25.94C18.63 25.92 18.61 25.89 18.6 25.87C18.58 25.84 18.56 25.81 18.54 25.78C18.52 25.76 18.5 25.73 18.48 25.7C18.47 25.67 18.45 25.65 18.43 25.63C18.41 25.6 18.39 25.57 18.37 25.54L18.31 25.47C18.27 25.42 18.24 25.37 18.2 25.32L18.15 25.25C18.12 25.22 18.1 25.19 18.08 25.17L18.02 25.1C18 25.07 17.97 25.05 17.95 25.02L17.9 24.96L17.82 24.87L17.78 24.82C17.68 24.72 17.59 24.61 17.49 24.52L17.44 24.47L17.35 24.38L17.31 24.34C17.28 24.31 17.24 24.28 17.21 24.25L17.18 24.22C17.07 24.12 16.95 24.02 16.84 23.92L16.8 23.89C16.77 23.86 16.73 23.83 16.7 23.81L16.66 23.78C16.62 23.75 16.58 23.72 16.55 23.69L16.53 23.67C16.4 23.57 16.27 23.48 16.13 23.39L16.11 23.37C16.07 23.34 16.03 23.32 15.99 23.29L15.96 23.27C15.91 23.24 15.87 23.21 15.83 23.18L15.82 23.18C15.67 23.09 15.53 23 15.38 22.91L15.37 22.91C15.32 22.88 15.27 22.86 15.23 22.83L15.21 22.82C14.95 22.69 14.69 22.56 14.42 22.45L14.41 22.44C14.33 22.41 14.26 22.38 14.19 22.35L15.6 22.35C15.83 22.35 16.02 22.1 16.02 21.79C16.02 21.48 15.83 21.23 15.6 21.23L15.18 21.23C15.21 21.17 15.24 21.1 15.27 21.02C15.67 20.78 16.37 20.28 17.06 19.36L17.07 19.35C17.12 19.28 17.17 19.21 17.22 19.14L17.23 19.12C17.28 19.05 17.33 18.98 17.38 18.9L17.4 18.88C17.42 18.84 17.45 18.81 17.47 18.77C17.47 18.77 17.47 18.76 17.47 18.76C17.5 18.73 17.52 18.68 17.54 18.64L17.56 18.62C17.58 18.58 17.6 18.55 17.62 18.51C17.63 18.51 17.63 18.5 17.63 18.49C17.66 18.45 17.68 18.41 17.7 18.37L17.72 18.34C17.74 18.31 17.76 18.27 17.77 18.24C17.78 18.23 17.79 18.22 17.79 18.21C17.81 18.16 17.83 18.12 17.86 18.08L17.87 18.05C17.89 18.01 17.91 17.98 17.92 17.94L17.94 17.9C17.96 17.86 17.99 17.82 18.01 17.77L18.02 17.74C18.04 17.7 18.05 17.67 18.07 17.63L18.09 17.58C18.11 17.54 18.13 17.49 18.15 17.45C18.15 17.44 18.16 17.43 18.16 17.42C18.18 17.38 18.2 17.34 18.21 17.29L18.23 17.24C18.25 17.2 18.26 17.16 18.28 17.12L18.29 17.09C18.31 17.04 18.33 16.99 18.35 16.94L18.37 16.89C18.38 16.85 18.39 16.81 18.41 16.76C18.41 16.75 18.42 16.73 18.42 16.72C18.44 16.67 18.46 16.62 18.47 16.56C18.48 16.54 18.49 16.53 18.49 16.51L18.53 16.38C18.54 16.37 18.54 16.35 18.55 16.33C18.56 16.28 18.58 16.22 18.59 16.17C18.6 16.15 18.6 16.13 18.61 16.11C18.62 16.07 18.63 16.03 18.64 15.98C18.65 15.96 18.65 15.94 18.66 15.92C18.67 15.87 18.69 15.81 18.7 15.75L18.72 15.7C18.73 15.65 18.74 15.61 18.75 15.56L18.76 15.49C18.78 15.43 18.79 15.37 18.8 15.31C18.8 15.3 18.81 15.29 18.81 15.27C18.82 15.22 18.83 15.17 18.84 15.11C18.85 15.09 18.85 15.07 18.85 15.04C18.86 14.99 18.87 14.93 18.88 14.88C18.89 14.86 18.89 14.85 18.89 14.84C18.9 14.78 18.91 14.71 18.92 14.64C18.93 14.62 18.93 14.6 18.93 14.57C18.94 14.52 18.95 14.47 18.96 14.41L18.96 14.36C18.97 14.29 18.98 14.22 18.99 14.15C18.99 14.13 19 14.11 19 14.08C19.01 14.03 19.01 13.97 19.02 13.92C19.02 13.9 19.02 13.88 19.02 13.86C19.03 13.78 19.04 13.71 19.05 13.64C19.05 13.62 19.05 13.6 19.05 13.57C19.06 13.52 19.06 13.46 19.07 13.4C19.07 13.37 19.07 13.35 19.07 13.33C19.08 13.25 19.08 13.18 19.09 13.1C19.09 13.08 19.09 13.06 19.09 13.05C19.09 12.98 19.1 12.92 19.1 12.85C19.1 12.83 19.1 12.8 19.1 12.78C19.11 12.7 19.11 12.62 19.11 12.54C19.11 12.53 19.11 12.52 19.11 12.5C19.11 12.43 19.11 12.36 19.12 12.28C19.12 12.26 19.12 12.23 19.12 12.21C19.12 12.13 19.12 12.05 19.12 11.97L19.12 11.95C19.12 11.86 19.12 11.78 19.12 11.69L19.12 11.61C19.12 11.54 19.11 11.46 19.11 11.38L19.11 11.34C19.11 11.25 19.1 11.16 19.1 11.07C19.1 11.04 19.1 11.02 19.1 11C19.09 10.92 19.09 10.84 19.09 10.76C19.09 10.75 19.09 10.73 19.08 10.71C19.08 10.61 19.07 10.52 19.06 10.42L19.06 10.36C19.05 10.28 19.05 10.2 19.04 10.12C19.04 10.09 19.04 10.07 19.04 10.05C19.03 9.95 19.02 9.85 19.01 9.75C19.01 9.73 19 9.72 19 9.7C18.99 9.61 18.99 9.53 18.98 9.44C18.97 9.42 18.97 9.39 18.97 9.37C18.96 9.26 18.95 9.16 18.93 9.06C18.93 9.04 18.93 9.03 18.93 9.02C18.92 8.93 18.9 8.83 18.89 8.74C18.89 8.71 18.88 8.68 18.88 8.66C18.87 8.55 18.85 8.44 18.83 8.34C17.26 -2.32 6.07 -0.59 6.07 -0.59L6.42 1.7L-0.34 8.48L-0.05 11.09L2.52 12.59C2.63 12.31 2.78 12.05 2.95 11.81C4.61 10 7.82 8.58 8.74 8.29C8.92 8.23 9.02 8.2 9.02 8.2C4.63 13.59 5.13 19.76 5.33 21.24C5.12 21.27 4.96 21.51 4.96 21.79C4.96 22.1 5.15 22.35 5.38 22.35L6.79 22.35C4.44 23.29 2.58 25.06 1.61 27.29C1.6 27.3 1.6 27.3 1.6 27.3C1.53 27.47 1.46 27.64 1.4 27.81C1.4 27.81 1.4 27.81 1.4 27.81C1.38 27.86 1.37 27.9 1.35 27.95C1.35 27.97 1.34 27.98 1.34 28C1.32 28.04 1.31 28.09 1.3 28.13C1.29 28.15 1.28 28.17 1.28 28.19C1.26 28.23 1.25 28.27 1.24 28.32L1.22 28.39C1.21 28.43 1.19 28.47 1.18 28.51C1.18 28.53 1.17 28.56 1.16 28.59C1.15 28.63 1.14 28.66 1.13 28.7C1.13 28.74 1.12 28.78 1.11 28.82C1.1 28.86 1.09 28.9 1.08 28.95L0.52 28.95C0.41 28.94 0.3 28.96 0.2 29C0.1 29.04 0.01 29.09 -0.07 29.17C-0.15 29.24 -0.21 29.32 -0.25 29.42C-0.29 29.51 -0.32 29.61 -0.32 29.72C-0.32 29.82 -0.29 29.92 -0.25 30.02C-0.21 30.11 -0.15 30.2 -0.07 30.27C0.01 30.34 0.1 30.4 0.2 30.43C0.3 30.47 0.41 30.49 0.52 30.49L20.48 30.49C20.59 30.49 20.7 30.47 20.8 30.43C20.9 30.4 20.99 30.34 21.07 30.27C21.14 30.2 21.21 30.11 21.25 30.02C21.29 29.92 21.31 29.82 21.31 29.72C21.31 29.61 21.29 29.51 21.25 29.42C21.21 29.32 21.14 29.24 21.07 29.17C20.99 29.09 20.9 29.04 20.8 29C20.7 28.96 20.59 28.94 20.48 28.95L20.47 28.94Z" fill="#595653" fill-opacity="1.000000" fill-rule="nonzero"/>
	<path id="Vector" d="" fill="#E7DBD0" fill-opacity="0" fill-rule="evenodd"/>
</svg>
